<?xml version="1.0" encoding="UTF-8"?>
<svg id="ci" xmlns="http://www.w3.org/2000/svg" version="1.1" viewBox="0 0 358.31 132.93">
  <defs>
    <style>
      .cls-1 {
        fill: #000;
      }

      .cls-1, .cls-2, .cls-3, .cls-4 {
        stroke-width: 0px;
      }

      .cls-2 {
        fill: #231f20;
      }

      .cls-3 {
        fill: #8c162d;
      }

      .cls-4 {
        fill: #fff;
      }
    </style>
  </defs>
  <g>
    <path class="cls-3" d="M125.31,37.98c-.07-1.01-.34-1.48-.94-2.56-.61-1.08-1.42-1.55-2.49-2.29-1.08-.74-3.84-1.95-6.4-3.1-2.56-1.15-10.18-2.97-15.3-2.97s-9.7,1.68-12.13,2.36c-2.43.67-9.16,4.11-9.84,4.51-.38.23-.93.21-.93.21h-.28s-.55.02-.93-.21c-.67-.4-7.41-3.84-9.84-4.51-2.43-.67-7.01-2.36-12.13-2.36s-12.74,1.82-15.3,2.97c-2.56,1.15-5.32,2.36-6.4,3.1-1.08.74-1.89,1.21-2.49,2.29-.61,1.08-.88,1.55-.94,2.56s.13,55.53.13,55.53c0,0,.07,1.28.2,2.02.13.74.81,2.16,1.55,2.83.74.67,2.29,1.68,3.64,1.89,1.35.2,3.17,0,4.18-.34,1.01-.34,5.05-2.16,6.27-2.36,1.21-.2,5.39-1.08,8.36-1.08s6.45.54,8.09,1.01c2.23.64,6.02,2.13,7.68,2.9,1.89.88,5,2.5,5,2.5,0,0,.88.51,1.37.53.46.02,1.18.01,1.59,0,.04,0,.08,0,.12,0,.38,0,1.21.02,1.71,0,.49-.02,1.37-.53,1.37-.53,0,0,3.11-1.63,5-2.5,1.67-.77,5.45-2.26,7.68-2.9,1.64-.47,5.12-1.01,8.09-1.01s7.14.88,8.36,1.08,5.26,2.02,6.27,2.36c1.01.34,2.83.54,4.18.34,1.35-.2,2.9-1.21,3.64-1.89s1.42-2.09,1.55-2.83c.13-.74.2-2.02.2-2.02,0,0,.2-54.52.13-55.53Z"/>
    <polygon class="cls-4" points="99.16 51.07 80.43 51.07 80.43 36.81 73.9 36.81 73.9 51.07 55.07 51.07 55.07 57.6 73.9 57.6 73.9 100.38 80.43 100.38 80.43 57.6 99.16 57.6 99.16 51.07"/>
  </g>
  <g>
    <g>
      <g>
        <path class="cls-2" d="M290.26,47.45h-28.44c-1.33,0-2.41,1.08-2.41,2.41s1.08,2.41,2.41,2.41h26.02v24.49h-5.65v-15.37c0-1.33-1.08-2.41-2.42-2.41s-2.41,1.08-2.41,2.41v15.37h-6.36v-15.37c0-1.33-1.08-2.41-2.41-2.41s-2.41,1.08-2.41,2.41v15.37h-5.34c-1.33,0-2.41,1.08-2.41,2.41s1.08,2.41,2.41,2.41h29.41c1.33,0,2.41-1.08,2.41-2.41v-29.31c0-1.33-1.08-2.41-2.41-2.41Z"/>
        <path class="cls-2" d="M329.61,45.54c-1.33,0-2.41,1.08-2.41,2.41v28.81l-13.42-.04v-5.09c5.92-1.11,10.39-6.02,10.39-11.89,0-2.85-1.06-5.47-2.82-7.54h1.76c1.3,0,2.36-1.05,2.36-2.36s-1.05-2.36-2.36-2.36h-9.51s0-.05,0-.07v-2.01c0-1.3-1.05-2.36-2.36-2.36s-2.36,1.06-2.36,2.36v2.01s0,.05,0,.07h-9.51c-1.3,0-2.36,1.05-2.36,2.36s1.05,2.36,2.36,2.36h1.76c-1.76,2.07-2.81,4.69-2.81,7.54,0,5.95,4.59,10.9,10.61,11.93v5.04l-9.65-.03h0c-1.33,0-2.41,1.08-2.41,2.41,0,1.33,1.07,2.42,2.41,2.42l30.32.08h0c.64,0,1.25-.25,1.7-.7.46-.46.71-1.07.71-1.71v-31.23c0-1.33-1.08-2.41-2.41-2.41ZM303.05,59.73c0-4.09,3.68-7.42,8.2-7.42s8.2,3.33,8.2,7.42-3.68,7.42-8.2,7.42-8.2-3.33-8.2-7.42Z"/>
        <path class="cls-2" d="M156.95,71.22c7.06,0,12.8-5.41,12.8-12.07s-5.74-12.07-12.8-12.07-12.8,5.41-12.8,12.07,5.74,12.07,12.8,12.07ZM156.95,51.91c4.4,0,7.97,3.25,7.97,7.24s-3.58,7.24-7.97,7.24-7.97-3.25-7.97-7.24,3.58-7.24,7.97-7.24Z"/>
        <path class="cls-2" d="M178.2,47.42h-4.66c-1.33,0-2.41,1.08-2.41,2.41v26.9h-21.55v-5c0-1.33-1.08-2.41-2.41-2.41s-2.41,1.08-2.41,2.41v7.41c0,1.33,1.08,2.41,2.41,2.41h26.38c1.33,0,2.41-1.08,2.41-2.41v-26.9h2.24c1.33,0,2.41-1.08,2.41-2.41s-1.08-2.41-2.41-2.41Z"/>
        <path class="cls-2" d="M212.17,47.25c-1.33,0-2.41,1.08-2.41,2.41v27.07h-20.86v-24.48h15.69c1.33,0,2.41-1.08,2.41-2.41s-1.08-2.41-2.41-2.41h-18.1c-1.33,0-2.41,1.08-2.41,2.41v29.31c0,1.33,1.08,2.41,2.41,2.41h25.69c1.33,0,2.41-1.08,2.41-2.41v-29.48c0-1.33-1.08-2.41-2.41-2.41Z"/>
        <path class="cls-2" d="M250.61,70.28h-28.23c-1.33,0-2.41,1.08-2.41,2.41s1.08,2.41,2.41,2.41h25.82v4.86c0,1.33,1.08,2.41,2.41,2.41s2.41-1.08,2.41-2.41v-7.27c0-1.33-1.08-2.41-2.41-2.41Z"/>
        <path class="cls-2" d="M251.59,63.9h-12.15v-1.92c5.16-.15,13.45-1.11,13.45-7.47,0-7.5-11.53-7.5-15.86-7.5-10.52,0-15.86,2.52-15.86,7.5,0,4.58,4.53,7.08,13.45,7.45v1.95h-12.23c-1.33,0-2.41,1.08-2.41,2.41s1.08,2.41,2.41,2.41h29.21c1.33,0,2.42-1.08,2.42-2.41s-1.08-2.41-2.42-2.41ZM225.99,54.51c0-.92,2.31-2.67,11.03-2.67,8.14,0,11.04,1.38,11.04,2.67s-2.9,2.67-11.04,2.67c-8.73,0-11.03-1.75-11.03-2.67Z"/>
      </g>
      <g>
        <path class="cls-2" d="M155.91,100.25l-.65-1.71h-5.52l-.65,1.74c-.25.68-.47,1.14-.65,1.37-.18.24-.47.36-.88.36-.35,0-.65-.13-.92-.38-.26-.25-.4-.54-.4-.86,0-.19.03-.38.09-.58.06-.2.16-.47.3-.83l3.48-8.82c.1-.25.22-.56.36-.91.14-.36.29-.65.44-.89.16-.24.36-.42.62-.57.26-.15.57-.22.95-.22s.7.07.96.22c.26.15.46.33.62.56.16.23.29.48.4.74.11.26.25.61.41,1.05l3.55,8.77c.28.67.42,1.15.42,1.45,0,.32-.13.6-.39.87-.26.26-.58.39-.95.39-.22,0-.4-.04-.56-.12-.16-.08-.28-.18-.39-.31-.11-.13-.22-.34-.34-.61-.12-.27-.22-.52-.31-.73ZM150.46,96.48h4.06l-2.05-5.61-2.01,5.61Z"/>
        <path class="cls-2" d="M164.83,89.62l5.29,8.01v-8.08c0-.52.11-.92.34-1.18.23-.26.53-.39.91-.39s.71.13.94.39c.23.26.34.66.34,1.18v10.69c0,1.19-.49,1.79-1.48,1.79-.25,0-.47-.04-.67-.11-.2-.07-.38-.18-.56-.34-.17-.15-.33-.33-.48-.54-.15-.21-.3-.42-.44-.64l-5.16-7.91v7.96c0,.52-.12.91-.36,1.18-.24.27-.55.4-.93.4s-.7-.13-.94-.4c-.24-.27-.35-.66-.35-1.17v-10.48c0-.45.05-.79.15-1.05.12-.28.31-.5.58-.68s.56-.26.88-.26c.25,0,.46.04.63.12.18.08.33.19.46.33.13.14.27.31.41.53.14.22.28.44.43.68Z"/>
        <path class="cls-2" d="M184.87,90.47h-3v9.87c0,.57-.13.99-.38,1.26-.25.27-.58.41-.98.41s-.74-.14-1-.42c-.26-.28-.38-.7-.38-1.26v-9.87h-3c-.47,0-.82-.1-1.05-.31-.23-.21-.34-.48-.34-.82s.12-.63.36-.83c.24-.2.58-.31,1.03-.31h8.75c.48,0,.83.11,1.06.32.23.21.35.48.35.82s-.12.61-.35.82c-.24.21-.59.31-1.06.31Z"/>
        <path class="cls-2" d="M188.4,100.34v-10.71c0-.56.13-.97.38-1.25.25-.28.58-.42.98-.42s.75.14,1.01.41c.26.28.38.69.38,1.25v10.71c0,.56-.13.98-.38,1.26-.26.28-.59.42-1.01.42s-.72-.14-.98-.42c-.26-.28-.39-.7-.39-1.25Z"/>
        <path class="cls-2" d="M200.58,87.97c1.41,0,2.62.29,3.63.86,1.01.57,1.77,1.38,2.29,2.44.52,1.05.78,2.29.78,3.71,0,1.05-.14,2-.43,2.86-.28.86-.71,1.6-1.28,2.23-.57.63-1.27,1.11-2.09,1.45-.83.33-1.78.5-2.85.5s-2.01-.17-2.85-.51c-.84-.34-1.54-.83-2.1-1.45-.56-.62-.99-1.38-1.27-2.25-.29-.88-.43-1.83-.43-2.84s.15-2,.45-2.87c.3-.87.73-1.61,1.3-2.22.57-.61,1.26-1.08,2.08-1.4.82-.33,1.74-.49,2.78-.49ZM204.49,94.96c0-.99-.16-1.86-.48-2.58-.32-.73-.78-1.28-1.38-1.66-.6-.37-1.28-.56-2.05-.56-.55,0-1.06.1-1.52.31-.47.21-.87.51-1.2.9-.34.4-.6.9-.8,1.51-.19.62-.29,1.31-.29,2.07s.1,1.47.29,2.1c.2.62.47,1.14.82,1.55.36.41.76.72,1.22.92.46.2.97.31,1.52.31.7,0,1.35-.17,1.94-.53.59-.35,1.06-.9,1.41-1.63.35-.74.52-1.64.52-2.72Z"/>
        <path class="cls-2" d="M221.59,97.5c0,.43-.11.9-.32,1.4-.21.5-.55,1-1,1.48-.46.48-1.04.88-1.75,1.18-.71.3-1.54.45-2.48.45-.72,0-1.37-.07-1.96-.2-.59-.14-1.12-.35-1.6-.64-.48-.29-.92-.67-1.32-1.13-.36-.43-.66-.9-.92-1.43-.25-.53-.44-1.09-.57-1.69-.13-.6-.19-1.23-.19-1.91,0-1.09.16-2.07.48-2.94.32-.87.77-1.61,1.37-2.22.59-.62,1.29-1.08,2.09-1.41.8-.32,1.65-.48,2.55-.48,1.1,0,2.08.22,2.94.66.86.44,1.52.98,1.97,1.63.46.65.69,1.26.69,1.83,0,.32-.11.59-.33.83-.22.24-.49.36-.81.36-.35,0-.62-.08-.79-.25-.18-.17-.37-.46-.59-.86-.36-.67-.78-1.18-1.26-1.51-.48-.33-1.08-.5-1.79-.5-1.13,0-2.03.43-2.7,1.29-.67.86-1.01,2.08-1.01,3.66,0,1.06.15,1.94.45,2.64.3.7.72,1.22,1.26,1.57.54.35,1.18.52,1.91.52.79,0,1.46-.2,2.01-.59.55-.39.96-.97,1.24-1.73.12-.36.26-.65.44-.88.17-.23.45-.34.83-.34.33,0,.61.11.84.34.23.23.35.51.35.85Z"/>
        <path class="cls-2" d="M227.22,89.64v3.89h5.94v-3.89c0-.56.13-.97.37-1.25.25-.28.58-.42.99-.42s.75.14,1.01.41c.26.28.38.69.38,1.25v10.71c0,.56-.13.98-.39,1.26-.26.28-.59.42-1,.42s-.74-.14-.99-.42c-.25-.28-.37-.7-.37-1.25v-4.57h-5.94v4.57c0,.56-.13.98-.39,1.26-.26.28-.59.42-1,.42s-.74-.14-.99-.42c-.25-.28-.37-.7-.37-1.25v-10.71c0-.56.12-.97.37-1.25.24-.28.58-.42,1-.42s.75.14,1.01.41c.26.28.38.69.38,1.25Z"/>
        <path class="cls-2" d="M258.03,97.5c0,.43-.11.9-.32,1.4-.21.5-.55,1-1.01,1.48-.46.48-1.04.88-1.75,1.18-.71.3-1.54.45-2.48.45-.72,0-1.37-.07-1.96-.2-.59-.14-1.12-.35-1.6-.64-.48-.29-.92-.67-1.32-1.13-.36-.43-.67-.9-.92-1.43-.25-.53-.44-1.09-.57-1.69-.13-.6-.19-1.23-.19-1.91,0-1.09.16-2.07.48-2.94.32-.87.77-1.61,1.37-2.22.59-.62,1.29-1.08,2.09-1.41.8-.32,1.65-.48,2.55-.48,1.1,0,2.08.22,2.94.66.86.44,1.52.98,1.97,1.63.46.65.69,1.26.69,1.83,0,.32-.11.59-.33.83-.22.24-.49.36-.81.36-.35,0-.62-.08-.79-.25-.18-.17-.37-.46-.59-.86-.36-.67-.78-1.18-1.26-1.51-.49-.33-1.08-.5-1.79-.5-1.13,0-2.03.43-2.7,1.29-.67.86-1.01,2.08-1.01,3.66,0,1.06.15,1.94.44,2.64.3.7.72,1.22,1.26,1.57.54.35,1.18.52,1.91.52.79,0,1.46-.2,2.01-.59.55-.39.96-.97,1.24-1.73.12-.36.26-.65.44-.88.17-.23.45-.34.83-.34.33,0,.61.11.84.34.23.23.35.51.35.85Z"/>
        <path class="cls-2" d="M263.66,89.64v3.89h5.94v-3.89c0-.56.12-.97.38-1.25.25-.28.58-.42.99-.42s.75.14,1.01.41c.26.28.38.69.38,1.25v10.71c0,.56-.13.98-.39,1.26-.26.28-.59.42-1,.42s-.74-.14-.99-.42c-.25-.28-.37-.7-.37-1.25v-4.57h-5.94v4.57c0,.56-.13.98-.39,1.26-.26.28-.59.42-1,.42s-.74-.14-.99-.42c-.25-.28-.37-.7-.37-1.25v-10.71c0-.56.12-.97.36-1.25.25-.28.58-.42,1-.42s.75.14,1.01.41c.26.28.38.69.38,1.25Z"/>
        <path class="cls-2" d="M275.71,96.17v-6.53c0-.56.13-.97.38-1.25.25-.28.58-.42.99-.42s.76.14,1.02.42c.25.28.38.7.38,1.25v6.68c0,.76.08,1.39.25,1.9.17.51.47.9.9,1.19.43.28,1.04.42,1.82.42,1.07,0,1.83-.29,2.28-.86.44-.57.67-1.44.67-2.6v-6.74c0-.56.12-.98.37-1.25.25-.27.58-.41.99-.41s.75.14,1.01.41c.26.28.38.69.38,1.25v6.53c0,1.06-.1,1.95-.31,2.66-.21.71-.6,1.33-1.17,1.87-.49.46-1.07.79-1.72,1-.66.21-1.42.32-2.3.32-1.05,0-1.94-.11-2.7-.34-.75-.23-1.37-.57-1.85-1.05s-.82-1.08-1.05-1.82c-.22-.74-.33-1.62-.33-2.65Z"/>
        <path class="cls-2" d="M294.18,95.97h-.96v4.37c0,.57-.13,1-.38,1.27-.25.27-.58.41-.99.41-.44,0-.78-.14-1.02-.43-.24-.28-.36-.7-.36-1.25v-10.45c0-.59.13-1.02.4-1.29.27-.27.69-.4,1.29-.4h4.48c.62,0,1.15.03,1.58.08.44.05.83.16,1.19.32.43.18.8.44,1.13.77.33.33.58.72.75,1.16.17.44.25.91.25,1.4,0,1.01-.29,1.82-.86,2.43-.57.61-1.44,1.04-2.6,1.29.49.26.95.64,1.4,1.15.44.51.84,1.05,1.19,1.62.35.57.62,1.09.81,1.55.2.46.29.78.29.95s-.06.36-.17.53c-.11.18-.27.31-.47.42-.2.1-.43.15-.69.15-.31,0-.57-.07-.78-.22-.21-.15-.39-.33-.54-.55-.15-.22-.36-.55-.62-.98l-1.1-1.83c-.4-.67-.75-1.19-1.06-1.54-.31-.35-.63-.59-.95-.72-.32-.13-.73-.2-1.21-.2ZM295.76,90.27h-2.54v3.74h2.46c.66,0,1.22-.06,1.67-.17.45-.11.79-.31,1.03-.58.24-.27.36-.65.36-1.14,0-.38-.1-.71-.29-1-.19-.29-.46-.5-.8-.64-.32-.14-.95-.2-1.9-.2Z"/>
        <path class="cls-2" d="M315.84,97.5c0,.43-.11.9-.32,1.4-.21.5-.55,1-1,1.48-.46.48-1.04.88-1.75,1.18-.71.3-1.54.45-2.48.45-.72,0-1.37-.07-1.96-.2-.59-.14-1.12-.35-1.6-.64-.48-.29-.92-.67-1.32-1.13-.36-.43-.67-.9-.92-1.43-.25-.53-.44-1.09-.57-1.69-.13-.6-.19-1.23-.19-1.91,0-1.09.16-2.07.48-2.94.32-.87.77-1.61,1.37-2.22.59-.62,1.29-1.08,2.09-1.41.8-.32,1.65-.48,2.55-.48,1.1,0,2.08.22,2.94.66.86.44,1.52.98,1.98,1.63.46.65.69,1.26.69,1.83,0,.32-.11.59-.33.83-.22.24-.49.36-.81.36-.35,0-.62-.08-.79-.25-.18-.17-.37-.46-.59-.86-.36-.67-.78-1.18-1.26-1.51-.48-.33-1.08-.5-1.79-.5-1.13,0-2.03.43-2.7,1.29-.67.86-1.01,2.08-1.01,3.66,0,1.06.15,1.94.45,2.64.3.7.72,1.22,1.26,1.57.54.35,1.18.52,1.91.52.79,0,1.46-.2,2.01-.59.55-.39.96-.97,1.24-1.73.12-.36.26-.65.44-.88.17-.23.45-.34.83-.34.33,0,.61.11.84.34.24.23.35.51.35.85Z"/>
        <path class="cls-2" d="M321.47,89.64v3.89h5.94v-3.89c0-.56.13-.97.37-1.25.25-.28.58-.42.99-.42s.75.14,1.01.41c.26.28.38.69.38,1.25v10.71c0,.56-.13.98-.39,1.26-.26.28-.59.42-1,.42s-.74-.14-.99-.42c-.25-.28-.37-.7-.37-1.25v-4.57h-5.94v4.57c0,.56-.13.98-.39,1.26-.26.28-.59.42-1,.42s-.75-.14-.99-.42c-.25-.28-.37-.7-.37-1.25v-10.71c0-.56.12-.97.37-1.25.24-.28.58-.42,1-.42s.75.14,1,.41c.26.28.38.69.38,1.25Z"/>
      </g>
    </g>
    <polygon class="cls-1" points="233.79 47.25 233.79 49.08 236.84 49.06 236.84 47.23 233.79 47.25"/>
    <path class="cls-2" d="M147.05,41.6h7.33c.47,0,.86-.38.86-.86v-5.85h2.29v5.85c0,.47.39.86.86.86s.86-.38.86-.86v-10.69c0-.47-.39-.86-.86-.86s-.86.39-.86.86v3.13h-2.29v-3.13c0-.47-.39-.86-.86-.86s-.86.39-.86.86v9.83h-5.61v-8.97h4.16c.47,0,.86-.38.86-.86s-.39-.86-.86-.86h-5.02c-.47,0-.86.39-.86.86v10.69c0,.47.39.86.86.86Z"/>
    <path class="cls-2" d="M207.86,41.6c.47,0,.86-.38.86-.86v-10.69c0-.47-.39-.86-.86-.86s-.86.39-.86.86v10.69c0,.47.39.86.86.86Z"/>
    <path class="cls-2" d="M171.49,31.56h.57c-.6.7-.96,1.58-.96,2.53,0,2.32,2.12,4.2,4.72,4.2s4.72-1.88,4.72-4.2c0-.95-.36-1.82-.96-2.53h.57c.47,0,.86-.39.86-.86s-.39-.86-.86-.86h-3.48v-.66c0-.47-.39-.86-.86-.86s-.86.39-.86.86v.66h-3.48c-.48,0-.86.38-.86.86s.38.86.86.86ZM175.83,36.57c-1.66,0-3.01-1.12-3.01-2.49s1.35-2.48,3.01-2.48,3.01,1.12,3.01,2.48-1.35,2.49-3.01,2.49Z"/>
    <path class="cls-2" d="M172.68,37.96c0-.47-.39-.86-.86-.86s-.86.38-.86.86v2.75c0,.47.38.86.86.86l10.4.03h0c.23,0,.45-.09.61-.25.16-.16.25-.38.25-.61v-9.83h.67c.47,0,.86-.38.86-.86s-.39-.86-.86-.86h-1.53c-.47,0-.86.39-.86.86v9.83l-8.68-.03v-1.89Z"/>
    <path class="cls-2" d="M220.3,37.47h5.46v3.16c0,.48.39.86.86.86s.86-.38.86-.86v-3.16h5.46c.47,0,.86-.38.86-.86s-.39-.86-.86-.86h-12.64c-.47,0-.86.38-.86.86s.39.86.86.86Z"/>
    <path class="cls-2" d="M245.38,41.85h11.52c.48,0,.86-.38.86-.86v-10.77c0-.47-.38-.86-.86-.86h-11.12c-.48,0-.86.39-.86.86s.39.86.86.86h10.26v9.05h-2.66v-5.3c0-.47-.39-.86-.86-.86s-.86.39-.86.86v5.3h-2.38v-5.3c0-.47-.39-.86-.86-.86s-.86.39-.86.86v5.3h-2.18c-.47,0-.86.39-.86.86s.39.86.86.86Z"/>
    <path class="cls-2" d="M271.47,30.91l-2.62,2.96c-.31.35-.28.9.07,1.21.16.14.37.22.57.22.24,0,.47-.1.64-.29l3.5-3.96s.05-.09.08-.14h.43s.04.09.07.13l3.38,3.95c.17.2.41.3.65.3.2,0,.4-.07.56-.21.36-.31.4-.85.09-1.21l-2.54-2.97h2.2c.48,0,.86-.38.86-.86s-.38-.86-.86-.86h-9.39c-.47,0-.86.39-.86.86s.39.86.86.86h2.29Z"/>
    <path class="cls-2" d="M281.43,38.37s0-.04,0-.07c.05-.11.07-.22.07-.34v-7.05h.85c.47,0,.86-.38.86-.86s-.39-.86-.86-.86h-1.71c-.47,0-.86.39-.86.86v5.99c-1.15-.67-2.83-1.09-4.75-1.09-3.65,0-6.4,1.47-6.4,3.42s2.75,3.42,6.4,3.42,6.4-1.47,6.4-3.42ZM270.34,38.37c0-.68,1.87-1.7,4.68-1.7s4.69,1.02,4.69,1.7-1.87,1.7-4.69,1.7-4.68-1.02-4.68-1.7Z"/>
    <path class="cls-2" d="M294.48,39.85c-.48,0-.86.39-.86.86s.39.86.86.86h11.69c.47,0,.86-.39.86-.86s-.39-.86-.86-.86h-4.98v-1.81h4.64c.47,0,.86-.38.86-.86s-.39-.86-.86-.86h-10.08v-1.81h10.08c.47,0,.86-.38.86-.86v-3.52c0-.47-.39-.86-.86-.86h-10.94c-.47,0-.86.38-.86.86s.39.86.86.86h10.08v1.8h-10.08c-.47,0-.86.38-.86.86v3.52c0,.48.39.86.86.86h4.59v1.81h-4.98Z"/>
    <path class="cls-2" d="M331.05,41.35c.16-.16.25-.38.25-.61v-10.69c0-.47-.39-.86-.86-.86s-.86.39-.86.86v9.83h-5.49v-1.63c2.53-.28,4.48-2.04,4.48-4.16,0-.95-.4-1.82-1.05-2.53h.73c.47,0,.86-.39.86-.86s-.39-.86-.86-.86h-4.01v-.66c0-.47-.38-.86-.86-.86s-.86.39-.86.86v.66h-4.01c-.47,0-.86.38-.86.86s.39.86.86.86h.73c-.66.7-1.05,1.58-1.05,2.53,0,2.04,1.81,3.75,4.19,4.12v1.65h-3.86s0,0,0,0c-.47,0-.86.38-.86.86,0,.48.38.86.86.86l11.94.03h0c.23,0,.45-.09.61-.25ZM319.9,34.08c0-1.35,1.59-2.48,3.48-2.48s3.47,1.14,3.47,2.48-1.59,2.49-3.47,2.49-3.48-1.14-3.48-2.49Z"/>
    <path class="cls-2" d="M220.94,35.06l5.39-4.53h.49l5.47,4.69c.16.14.36.21.56.21.24,0,.48-.1.65-.3.31-.36.27-.9-.09-1.21l-5.71-4.9c-.16-.13-.71-.37-.91-.37h-.48c-.2,0-.68.23-.84.36l-5.63,4.73c-.36.31-.41.85-.11,1.21.3.36.85.41,1.21.11Z"/>
    <path class="cls-1" d="M205.1,29.19h-6.17c-2.1,0-3.75,2.72-3.75,6.19s1.65,6.19,3.75,6.19c1.91,0,3.44-2.25,3.71-5.26h1.7s0,4.43,0,4.43c0,.48.34.86.76.86s.76-.38.76-.86v-10.69c0-.47-.34-.86-.76-.86ZM198.96,39.85c-1.11,0-2.09-2.09-2.09-4.47s.98-4.47,2.09-4.47,2.09,2.09,2.09,4.47-.98,4.47-2.09,4.47ZM204.34,34.57h-1.7c-.11-1.43-.49-2.72-1.09-3.66h2.79v3.66Z"/>
  </g>
</svg>